:FULLY-SPECIFIED
:FORCE-ALL-JOINTS-BE-3DOF
:DEGREES
102
root -2.8402 16.5127 -36.1883 3.09291 0.180488 -2.26967
lfemur -21.0179 5.90694 -9.17164
ltibia 44.3191 -0 0
lfoot -21.6218 0.0428613 -0.000536761
ltoes -8.10645 0 0
rfemur -21.5553 -5.69292 13.7679
rtibia 47.0564 -0 0
rfoot -25.519 1.43553 -4.52037e-05
rtoes -6.97175 0 0
lowerback 7.65308 1.95377 -1.6166
upperback -3.61162 2.53536 1.22359
thorax -8.24107 1.36379 1.82773
lowerneck -2.53993 -3.80425 -6.53903
upperneck 5.9265 -5.14447 5.92567
head 2.73665 -2.54724 2.93799
lclavicle -3.9524e-16 8.59744e-15 0
lhumerus -26.9012 -4.32376 89.8552
lradius 25.0063 -0 0
lwrist -30.2407 0 0
lhand -28.624 30.151 -0.000149123
lfingers 7.12502 -0 0
lthumb -1.98856 60.1214 -0.000143102
rclavicle -3.9524e-16 8.59744e-15 0
rhumerus -32.444 3.04402 -80.2776
rradius 30.6892 -0 0
rwrist 2.53439 0 0
rhand -19.9618 -27.7091 0.00034471
rfingers 7.12502 -0 0
rthumb 6.37665 -57.5931 0.000331359
103
root -2.83708 16.5117 -36.1841 3.14366 0.173608 -2.28491
lfemur -21.0751 5.89552 -9.16661
ltibia 44.3439 -0 0
lfoot -21.6416 0.0901029 -0.000342189
ltoes -8.18685 0 0
rfemur -21.613 -5.70922 13.7779
rtibia 47.0694 -0 0
rfoot -25.5315 1.45786 1.66825e-05
rtoes -6.9791 0 0
lowerback 7.59244 1.95887 -1.64014
upperback -3.63554 2.54063 1.22496
thorax -8.23299 1.36792 1.84282
lowerneck -2.56786 -3.8072 -6.52729
upperneck 5.97742 -5.14937 5.92703
head 2.75893 -2.54902 2.93581
lclavicle -3.9524e-16 8.59744e-15 0
lhumerus -26.8968 -4.2811 89.8422
lradius 25.0015 -0 0
lwrist -30.2608 0 0
lhand -28.6063 30.1497 -0.000114057
lfingers 7.12502 -0 0
lthumb -1.97148 60.1203 -0.000109373
rclavicle -3.9524e-16 8.59744e-15 0
rhumerus -32.45 2.98461 -80.2661
rradius 30.66 -0 0
rwrist 2.56023 0 0
rhand -19.9487 -27.6805 0.000204015
rfingers 7.12502 -0 0
rthumb 6.38937 -57.564 0.000198259
104
root -2.83395 16.5107 -36.1799 3.20561 0.17085 -2.30357
lfemur -21.154 5.88736 -9.16081
ltibia 44.39 -0 0
lfoot -21.6737 0.138722 -0.000191689
ltoes -8.27842 0 0
rfemur -21.6857 -5.73414 13.7892
rtibia 47.0954 -0 0
rfoot -25.5535 1.48172 4.46924e-05
rtoes -6.99506 0 0
lowerback 7.51374 1.96292 -1.66548
upperback -3.66539 2.54463 1.22668
thorax -8.22085 1.3716 1.86001
lowerneck -2.59168 -3.81002 -6.51525
upperneck 6.03554 -5.15452 5.92727
head 2.78282 -2.55104 2.93323
lclavicle -3.9524e-16 8.59744e-15 0
lhumerus -26.8924 -4.22393 89.8206
lradius 24.9953 -0 0
lwrist -30.2855 0 0
lhand -28.5868 30.1531 -7.54756e-05
lfingers 7.12502 -0 0
lthumb -1.95261 60.1239 -7.22992e-05
rclavicle -3.9524e-16 8.59744e-15 0
rhumerus -32.4585 2.92131 -80.2547
rradius 30.6313 -0 0
rwrist 2.58696 0 0
rhand -19.9297 -27.6516 9.65897e-05
rfingers 7.12502 -0 0
rthumb 6.40766 -57.5346 9.60116e-05
105
root -2.83083 16.5096 -36.1758 3.28061 0.173049 -2.32599
lfemur -21.2579 5.88332 -9.15435
ltibia 44.4607 -0 0
lfoot -21.7201 0.188313 -8.04527e-05
ltoes -8.38232 0 0
rfemur -21.7756 -5.76898 13.802
rtibia 47.1365 -0 0
rfoot -25.5867 1.50691 3.85717e-05
rtoes -7.02771 0 0
lowerback 7.41342 1.96562 -1.69259
upperback -3.70219 2.54702 1.2288
thorax -8.20367 1.37469 1.87952
lowerneck -2.61031 -3.81265 -6.50284
upperneck 6.10223 -5.15992 5.92599
head 2.80858 -2.55332 2.93015
lclavicle -3.9524e-16 8.59744e-15 0
lhumerus -26.8883 -4.15068 89.7898
lradius 24.9875 -0 0
lwrist -30.3152 0 0
lhand -28.5652 30.162 -3.61655e-05
lfingers 7.12502 -0 0
lthumb -1.93177 60.133 -3.45877e-05
rclavicle -3.9524e-16 8.59744e-15 0
rhumerus -32.4696 2.85411 -80.2434
rradius 30.6037 -0 0
rwrist 2.6144 0 0
rhand -19.9039 -27.6231 2.71773e-05
rfingers 7.12502 -0 0
rthumb 6.43257 -57.5054 2.8752e-05
106
root -2.8277 16.5086 -36.1716 3.37051 0.181047 -2.35253
lfemur -21.3903 5.88428 -9.14733
ltibia 44.5593 0 0
lfoot -21.783 0.238469 0
ltoes -8.49969 0 0
rfemur -21.8851 -5.815 13.8163
rtibia 47.1946 0 0
rfoot -25.6325 1.53325 0
rtoes -7.07983 0 0
lowerback 7.2879 1.96665 -1.72144
upperback -3.74694 2.54747 1.23139
thorax -8.18044 1.37702 1.90154
lowerneck -2.62272 -3.81502 -6.49001
upperneck 6.17888 -5.16558 5.92283
head 2.83645 -2.55589 2.92642
lclavicle -3.9524e-16 8.59744e-15 0
lhumerus -26.885 -4.05976 89.7487
lradius 24.9782 0 0
lwrist -30.3501 0 0
lhand -28.5414 30.177 0
lfingers 7.12502 0 0
lthumb -1.90879 60.1482 0
rclavicle -3.9524e-16 8.59744e-15 0
rhumerus -32.4836 2.78304 -80.2323
rradius 30.5776 0 0
rwrist 2.64235 0 0
rhand -19.8702 -27.5955 0
rfingers 7.12502 0 0
rthumb 6.46513 -57.4768 0
